<?xml version="1.0" encoding="utf-8"?>
<svg viewBox="-364.119 98.402 280.28 304.822" xmlns="http://www.w3.org/2000/svg">
  <defs>
    <linearGradient id="linear-gradient" x1="198.25" y1="387.89" x2="424.54" y2="213.95" gradientUnits="userSpaceOnUse" gradientTransform="matrix(0.673444, 0, 0, 0.673444, 103.960648, 169.244908)">
      <stop offset="0" stop-color="#92c83e"/>
      <stop offset="1" stop-color="#1ba8e0"/>
    </linearGradient>
  </defs>
  <path class="cls-1" d="M 410.377 370.356 C 409.041 370.347 407.79 369.701 407.01 368.618 L 319.84 247.365 L 252.791 340.616 C 252.01 341.7 250.76 342.345 249.424 342.353 L 228.581 342.353 C 225.364 342.483 223.214 339.081 224.71 336.231 C 225.461 334.801 226.968 333.932 228.581 333.996 L 247.256 333.996 L 316.452 237.761 C 317.231 236.675 318.483 236.027 319.819 236.017 L 319.819 236.017 C 321.155 236.031 322.404 236.678 323.187 237.761 L 413.744 363.742 C 415.626 366.341 413.989 370.003 410.797 370.333 C 410.657 370.347 410.517 370.355 410.377 370.356 Z M 350.441 309.402 C 350.441 307.092 348.569 305.219 346.259 305.219 L 292.855 305.219 C 289.635 305.219 287.623 308.705 289.232 311.493 C 289.98 312.786 291.361 313.584 292.855 313.584 L 346.286 313.584 C 348.584 313.569 350.441 311.701 350.441 309.402 Z M 335.033 280.619 C 335.029 278.314 333.161 276.447 330.857 276.444 L 308.262 276.444 C 305.046 276.314 302.896 279.716 304.393 282.566 C 305.143 283.996 306.649 284.866 308.262 284.801 L 330.911 284.801 C 333.207 284.782 335.059 282.915 335.059 280.619 Z M 373.796 338.178 C 373.796 335.869 371.923 333.996 369.613 333.996 L 345.794 333.996 C 342.577 334.125 340.707 337.688 342.427 340.41 C 343.162 341.572 344.42 342.298 345.794 342.353 L 369.641 342.353 C 371.949 342.357 373.823 340.486 373.823 338.178 Z M 330.931 338.178 C 330.931 335.869 329.058 333.996 326.749 333.996 L 271.459 333.996 C 268.243 333.867 266.092 337.268 267.588 340.118 C 268.339 341.548 269.846 342.418 271.459 342.353 L 326.776 342.353 C 329.084 342.357 330.958 340.486 330.958 338.178 Z M 387.972 366.995 C 387.972 364.688 386.103 362.817 383.796 362.813 L 280.315 362.813 C 277.098 362.942 275.228 366.505 276.947 369.226 C 277.682 370.389 278.941 371.115 280.315 371.17 L 383.823 371.17 C 386.128 371.167 387.995 369.3 387.998 366.995 Z M 264.732 366.995 C 264.732 364.688 262.863 362.817 260.556 362.813 L 228.568 362.813 C 225.351 362.684 223.2 366.085 224.697 368.935 C 225.447 370.365 226.955 371.235 228.568 371.17 L 260.556 371.17 C 262.866 371.174 264.741 369.304 264.745 366.995 Z M 414.512 395.717 C 414.508 393.406 412.634 391.535 410.323 391.535 L 297.239 391.535 C 294.022 391.406 291.872 394.808 293.368 397.658 C 294.119 399.088 295.625 399.957 297.239 399.893 L 410.31 399.893 C 412.63 399.911 414.522 398.038 414.526 395.717 Z M 279.305 395.717 C 279.305 393.407 277.432 391.535 275.123 391.535 L 228.581 391.535 C 225.364 391.406 223.214 394.808 224.71 397.658 C 225.461 399.088 226.968 399.957 228.581 399.893 L 275.136 399.893 C 277.445 399.897 279.318 398.026 279.318 395.717 Z M 414.512 424.527 C 414.512 422.218 412.639 420.345 410.33 420.345 L 228.581 420.345 C 225.364 420.216 223.214 423.617 224.71 426.468 C 225.461 427.898 226.968 428.768 228.581 428.702 L 410.377 428.702 C 412.672 428.688 414.526 426.823 414.526 424.527 Z" style="fill: url(#linear-gradient);" transform="matrix(1, 0, 0, 1, -542.958862, -137.615128)"/>
  <path class="cls-2" d="M217.25,506.73v13H178.84V455.85H194v50.88Z" style="fill: rgb(255, 255, 255);" transform="matrix(1, 0, 0, 1, -542.958862, -137.615128)"/>
  <path class="cls-2" d="M239.32,517.81a21.63,21.63,0,0,1-8.63-9.06,29.8,29.8,0,0,1,0-25.69,21.63,21.63,0,0,1,8.63-9.06,30.86,30.86,0,0,1,27.89,0,21.42,21.42,0,0,1,8.59,9.06,30.27,30.27,0,0,1,0,25.69,21.42,21.42,0,0,1-8.59,9.06,30.95,30.95,0,0,1-27.89,0Zm21.53-12.43q2.56-3.28,2.57-9.52t-2.57-9.43q-2.58-3.29-7.54-3.29t-7.67,3.29q-2.61,3.29-2.61,9.43t2.61,9.52q2.61,3.28,7.67,3.29T260.85,505.38Z" style="fill: rgb(255, 255, 255);" transform="matrix(1, 0, 0, 1, -542.958862, -137.615128)"/>
  <path class="cls-2" d="M338.14,448.43V519.7H323.48v-3.12a20.74,20.74,0,0,1-12.81,4.55,22.41,22.41,0,0,1-11.33-2.82,19.44,19.44,0,0,1-7.75-8.51,35.67,35.67,0,0,1,0-27.8,19.42,19.42,0,0,1,7.75-8.5,22.32,22.32,0,0,1,11.33-2.83,20.8,20.8,0,0,1,12.81,4.55V448.43Zm-14.66,56.28V487.1a16.39,16.39,0,0,0-9.61-3.45q-4.87,0-7.37,3.11t-2.48,9.1c0,4,.83,7.11,2.48,9.18s4.12,3.12,7.37,3.12A16.39,16.39,0,0,0,323.48,504.71Z" style="fill: rgb(255, 255, 255);" transform="matrix(1, 0, 0, 1, -542.958862, -137.615128)"/>
  <path class="cls-2" d="M400.14,472v47.51a22.94,22.94,0,0,1-2.57,10.91,18.63,18.63,0,0,1-7.58,7.63,24.48,24.48,0,0,1-12,2.78,95.09,95.09,0,0,1-12.05-.68,44.18,44.18,0,0,1-9.77-2.36V524.33a44.31,44.31,0,0,0,9,2.7,45.38,45.38,0,0,0,8.17.84c4.21,0,7.29-.78,9.22-2.36a8.26,8.26,0,0,0,2.91-6.82V514.9a20.8,20.8,0,0,1-12.81,4.55q-10,0-16-5.94T350.77,495a29,29,0,0,1,2.82-13.4,19.15,19.15,0,0,1,7.75-8.21,23,23,0,0,1,11.33-2.74,20.8,20.8,0,0,1,12.81,4.55V472Zm-14.66,31V487.1a16.38,16.38,0,0,0-9.6-3.45q-4.89,0-7.38,2.9T366,495q0,6.32,2.4,8.89t7.46,2.57A16.4,16.4,0,0,0,385.48,503Z" style="fill: rgb(255, 255, 255);" transform="matrix(1, 0, 0, 1, -542.958862, -137.615128)"/>
  <path class="cls-2" d="M432.78,506.73q2.91,2.26,8.55,2.27a24,24,0,0,0,6.28-.8,36.49,36.49,0,0,0,6.86-2.74l3.79,11.29a32.23,32.23,0,0,1-8.68,3.41,47,47,0,0,1-10.27,1,29.53,29.53,0,0,1-14.2-3.16,21.13,21.13,0,0,1-8.88-8.88,31,31,0,0,1,.08-26.92,21.12,21.12,0,0,1,8.42-8.59,24.31,24.31,0,0,1,11.88-2.91q10.53,0,16.51,6.11t6,17.82v5.81H429A10.73,10.73,0,0,0,432.78,506.73Zm-1.1-22.41q-1.89,1.51-2.65,5.22h14.66a7.82,7.82,0,0,0-2.07-5.14,7.14,7.14,0,0,0-5-1.6A7.68,7.68,0,0,0,431.68,484.32Z" style="fill: rgb(255, 255, 255);" transform="matrix(1, 0, 0, 1, -542.958862, -137.615128)"/>
</svg>