<?xml version="1.0" encoding="utf-8"?>
<svg viewBox="106.316 532.241 250.157 306.226" xmlns="http://www.w3.org/2000/svg">
  <defs>
    <linearGradient id="linear-gradient" x1="198.25" y1="387.89" x2="424.54" y2="213.95" gradientUnits="userSpaceOnUse" gradientTransform="matrix(0.673444, 0, 0, 0.673444, 15.08989, 465.468597)">
      <stop offset="0" stop-color="#92c83e"/>
      <stop offset="1" stop-color="#1ba8e0"/>
    </linearGradient>
  </defs>
  <path class="cls-1" d="M 321.506 666.58 C 320.17 666.571 318.919 665.925 318.139 664.842 L 230.969 543.589 L 163.92 636.84 C 163.139 637.924 161.889 638.569 160.553 638.577 L 139.71 638.577 C 136.493 638.707 134.343 635.305 135.839 632.455 C 136.59 631.025 138.097 630.156 139.71 630.22 L 158.385 630.22 L 227.581 533.985 C 228.36 532.899 229.612 532.251 230.948 532.241 L 230.948 532.241 C 232.284 532.255 233.533 532.902 234.316 533.985 L 324.873 659.966 C 326.755 662.565 325.118 666.227 321.926 666.557 C 321.786 666.571 321.646 666.579 321.506 666.58 Z M 261.57 605.626 C 261.57 603.316 259.698 601.443 257.388 601.443 L 203.984 601.443 C 200.764 601.443 198.752 604.929 200.361 607.717 C 201.109 609.01 202.49 609.808 203.984 609.808 L 257.415 609.808 C 259.713 609.793 261.57 607.925 261.57 605.626 Z M 246.162 576.843 C 246.158 574.538 244.29 572.671 241.986 572.668 L 219.391 572.668 C 216.175 572.538 214.025 575.94 215.522 578.79 C 216.272 580.22 217.778 581.09 219.391 581.025 L 242.04 581.025 C 244.336 581.006 246.188 579.139 246.188 576.843 Z M 284.925 634.402 C 284.925 632.093 283.052 630.22 280.742 630.22 L 256.923 630.22 C 253.706 630.349 251.836 633.912 253.556 636.634 C 254.291 637.796 255.549 638.522 256.923 638.577 L 280.77 638.577 C 283.078 638.581 284.952 636.71 284.952 634.402 Z M 242.06 634.402 C 242.06 632.093 240.187 630.22 237.878 630.22 L 182.588 630.22 C 179.372 630.091 177.221 633.492 178.717 636.342 C 179.468 637.772 180.975 638.642 182.588 638.577 L 237.905 638.577 C 240.213 638.581 242.087 636.71 242.087 634.402 Z M 299.101 663.219 C 299.101 660.912 297.232 659.041 294.925 659.037 L 191.444 659.037 C 188.227 659.166 186.357 662.729 188.076 665.45 C 188.811 666.613 190.07 667.339 191.444 667.394 L 294.952 667.394 C 297.257 667.391 299.124 665.524 299.127 663.219 Z M 175.861 663.219 C 175.861 660.912 173.992 659.041 171.685 659.037 L 139.697 659.037 C 136.48 658.908 134.329 662.309 135.826 665.159 C 136.576 666.589 138.084 667.459 139.697 667.394 L 171.685 667.394 C 173.995 667.398 175.87 665.528 175.874 663.219 Z M 325.641 691.941 C 325.637 689.63 323.763 687.759 321.452 687.759 L 208.368 687.759 C 205.151 687.63 203.001 691.032 204.497 693.882 C 205.248 695.312 206.754 696.181 208.368 696.117 L 321.439 696.117 C 323.759 696.135 325.651 694.262 325.655 691.941 Z M 190.434 691.941 C 190.434 689.631 188.561 687.759 186.252 687.759 L 139.71 687.759 C 136.493 687.63 134.343 691.032 135.839 693.882 C 136.59 695.312 138.097 696.181 139.71 696.117 L 186.265 696.117 C 188.574 696.121 190.447 694.25 190.447 691.941 Z M 325.641 720.751 C 325.641 718.442 323.768 716.569 321.459 716.569 L 139.71 716.569 C 136.493 716.44 134.343 719.841 135.839 722.692 C 136.59 724.122 138.097 724.992 139.71 724.926 L 321.506 724.926 C 323.801 724.912 325.655 723.047 325.655 720.751 Z" style="fill: url(#linear-gradient);"/>
  <path class="cls-2" d="M 140.598 808.024 L 140.598 819.627 L 106.316 819.627 L 106.316 762.613 L 119.847 762.613 L 119.847 808.024 Z" style="fill: rgb(255, 255, 255);"/>
  <path class="cls-2" d="M 160.296 817.914 C 156.988 816.036 154.309 813.222 152.593 809.827 C 149.13 802.576 149.13 794.148 152.593 786.898 C 154.309 783.502 156.988 780.69 160.296 778.812 C 168.121 774.848 177.365 774.848 185.189 778.812 C 188.491 780.686 191.16 783.501 192.855 786.898 C 196.259 794.162 196.259 802.563 192.855 809.827 C 191.16 813.224 188.491 816.039 185.189 817.914 C 177.361 821.864 168.123 821.864 160.296 817.914 Z M 179.512 806.819 C 181.036 804.867 181.8 802.035 181.806 798.323 C 181.812 794.61 181.047 791.804 179.512 789.906 C 177.977 787.948 175.734 786.97 172.782 786.97 C 169.832 786.97 167.55 787.948 165.937 789.906 C 164.384 791.863 163.607 794.669 163.607 798.323 C 163.607 801.976 164.384 804.808 165.937 806.819 C 167.49 808.77 169.772 809.75 172.782 809.756 C 175.794 809.761 178.037 808.783 179.512 806.819 Z" style="fill: rgb(255, 255, 255);"/>
  <path class="cls-2" d="M 248.495 755.99 L 248.495 819.6 L 235.411 819.6 L 235.411 816.816 C 232.165 819.415 228.137 820.845 223.978 820.877 C 220.444 820.945 216.954 820.077 213.865 818.36 C 210.846 816.584 208.434 813.936 206.948 810.764 C 203.593 802.833 203.593 793.882 206.948 785.952 C 208.435 782.783 210.847 780.137 213.865 778.366 C 216.953 776.641 220.442 775.769 223.978 775.84 C 228.136 775.875 232.162 777.304 235.411 779.901 L 235.411 755.99 Z M 235.411 806.221 L 235.411 790.504 C 232.953 788.59 229.948 787.511 226.834 787.425 C 223.937 787.425 221.744 788.349 220.256 790.201 C 218.769 792.051 218.031 794.758 218.042 798.323 C 218.042 801.893 218.783 804.668 220.256 806.516 C 221.729 808.363 223.933 809.301 226.834 809.301 C 229.948 809.213 232.953 808.135 235.411 806.221 Z" style="fill: rgb(255, 255, 255);"/>
  <path class="cls-2" d="M 303.832 777.027 L 303.832 819.431 C 303.885 822.816 303.097 826.161 301.538 829.168 C 300.002 832.054 297.649 834.423 294.773 835.978 C 291.473 837.704 287.786 838.559 284.063 838.459 C 280.468 838.484 276.876 838.282 273.308 837.853 C 270.33 837.484 267.405 836.777 264.588 835.746 L 264.588 823.733 C 267.172 824.818 269.865 825.626 272.62 826.143 C 275.024 826.612 277.464 826.863 279.912 826.892 C 283.67 826.892 286.419 826.196 288.141 824.786 C 289.92 823.281 290.883 821.024 290.739 818.699 L 290.739 815.316 C 287.49 817.912 283.464 819.342 279.305 819.377 C 273.356 819.377 268.595 817.61 265.025 814.076 C 261.455 810.541 259.703 805.034 259.768 797.555 C 259.64 793.424 260.503 789.323 262.285 785.595 C 263.802 782.512 266.213 779.959 269.202 778.268 C 272.307 776.598 275.79 775.755 279.314 775.822 C 283.473 775.857 287.499 777.287 290.748 779.883 L 290.748 777.027 Z M 290.748 804.695 L 290.748 790.504 C 288.292 788.591 285.291 787.513 282.179 787.425 C 279.27 787.425 277.074 788.287 275.592 790.013 C 274.111 791.738 273.367 794.253 273.361 797.555 C 273.361 801.315 274.075 803.96 275.503 805.49 C 276.931 807.018 279.151 807.783 282.161 807.783 C 285.28 807.695 288.288 806.613 290.748 804.695 Z" style="fill: rgb(255, 255, 255);"/>
  <path class="cls-2" d="M 332.964 808.024 C 334.696 809.368 337.239 810.044 340.595 810.05 C 342.487 810.06 344.371 809.82 346.2 809.336 C 348.319 808.73 350.37 807.911 352.323 806.891 L 355.706 816.967 C 353.285 818.352 350.675 819.377 347.958 820.011 C 344.945 820.644 341.871 820.943 338.792 820.903 C 334.398 821.035 330.042 820.065 326.118 818.083 C 322.735 816.305 319.971 813.541 318.193 810.157 C 314.557 802.555 314.582 793.711 318.264 786.131 C 319.973 782.901 322.584 780.236 325.779 778.464 C 329.035 776.708 332.685 775.814 336.382 775.867 C 342.648 775.867 347.56 777.684 351.118 781.32 C 354.677 784.955 356.462 790.257 356.473 797.225 L 356.473 802.41 L 329.59 802.41 C 330.02 804.619 331.215 806.607 332.964 808.024 Z M 331.982 788.023 C 330.858 788.921 330.07 790.474 329.617 792.682 L 342.701 792.682 C 342.667 790.978 342.009 789.346 340.854 788.094 C 339.602 787.069 338.007 786.558 336.391 786.666 C 334.809 786.595 333.251 787.075 331.982 788.023 Z" style="fill: rgb(255, 255, 255);"/>
</svg>